<svg xmlns="http://www.w3.org/2000/svg" width="214" height="214" viewBox="0 0 214 214">
  <style>
    #logo rect { fill: #3fa9f5; }
  </style>
  <g id="logo">
    <rect width="214" height="214" style="fill:#3fa9f5;"/>
    <path d="M126.570757,93.730071l2.651367,15.413574h1.257812l1.618164-26.198242h4.673828l-2.157227,32.084961h-8.313477l-2.651367-15.862793h-1.257812l-2.651367,15.862793h-8.358398l-2.202148-32.084961h4.673828l1.707031,26.198242h1.258789l2.651367-15.413574h7.099609Z" style="fill:#1a1a1a;"/>
    <path d="M163.556109,82.945403v32.084961h-4.807617v-14.245117h-10.560547v14.245117h-4.808594v-32.084961h4.808594v13.256348h10.560547v-13.256348h4.807617Z" style="fill:#1a1a1a;"/>
    <path d="M192.587359,98.987884c0,9.661621-3.100586,16.626465-11.324219,16.626465s-11.324219-6.964844-11.324219-16.626465c0-9.706543,3.100586-16.626953,11.324219-16.626953s11.324219,6.92041,11.324219,16.626953ZM187.688921,98.987884c0-7.324707-1.392578-11.998535-6.425781-11.998535s-6.425781,4.673828-6.425781,11.998535,1.392578,11.998047,6.425781,11.998047,6.425781-4.67334,6.425781-11.998047Z" style="fill:#1a1a1a;"/>
    <path d="M40.017046,123.391692c9.392578,0,12.538086,6.425781,12.538086,16.04248,0,9.571777-3.145508,16.04248-12.538086,16.04248h-8.313477v-32.084961h8.313477ZM36.512163,150.983001h2.96582c7.055664,0,8.178711-5.078125,8.178711-11.548828,0-6.471191-1.123047-11.548828-8.178711-11.548828h-2.96582v23.097656Z" style="fill:#1a1a1a;"/>
    <path d="M76.957476,150.983001v4.493652h-18.020508v-32.084961h18.020508v4.493652h-13.211914v8.717773h9.706055v4.493652h-9.706055v9.88623h13.211914Z" style="fill:#1a1a1a;"/>
    <path d="M97.989702,131.884857c-.899414-3.145996-2.381836-4.449219-5.392578-4.449219-4.808594,0-6.470703,4.494141-6.470703,11.998535s1.662109,11.998047,6.470703,11.998047c3.010742,0,4.898438-1.213379,5.751953-5.347656h4.852539c-1.033203,6.021973-4.043945,9.976074-10.379883,9.976074-8.313477,0-11.59375-6.785156-11.59375-16.626465,0-9.88623,3.280273-16.626953,11.59375-16.626953,6.021484,0,8.852539,3.550293,9.975586,9.077637h-4.807617Z" style="fill:#1a1a1a;"/>
    <path d="M113.719195,155.476653h-4.808594v-32.084961h4.808594v32.084961Z" style="fill:#1a1a1a;"/>
    <path d="M129.852007,123.391692c9.392578,0,12.538086,6.425781,12.538086,16.04248,0,9.571777-3.145508,16.04248-12.538086,16.04248h-8.313477v-32.084961h8.313477ZM126.347124,150.983001h2.96582c7.055664,0,8.178711-5.078125,8.178711-11.548828,0-6.471191-1.123047-11.548828-8.178711-11.548828h-2.96582v23.097656Z" style="fill:#1a1a1a;"/>
    <path d="M166.792437,150.983001v4.493652h-18.020508v-32.084961h18.020508v4.493652h-13.211914v8.717773h9.706055v4.493652h-9.706055v9.88623h13.211914Z" style="fill:#1a1a1a;"/>
    <path d="M187.19478,131.750091c-.763672-3.101074-2.426758-4.269043-5.572266-4.269043-2.96582,0-4.672852,1.527832-4.672852,3.819336,0,2.202148.943359,3.010742,3.594727,4.134277l4.583984,1.932129c4.313477,1.842773,7.369141,3.819824,7.369141,9.077637,0,4.897949-2.831055,9.616211-10.424805,9.616211-6.920898,0-10.425781-4.224121-10.919922-9.795898h4.852539c.674805,4.088867,3.371094,5.122559,6.336914,5.122559,3.415039,0,5.256836-2.111816,5.256836-4.628418s-1.123047-3.595215-4.043945-4.808105l-4.583984-1.932617c-3.954102-1.662598-6.919922-3.370117-6.919922-8.40332,0-4.808105,2.96582-8.807617,9.750977-8.807617,6.47168,0,9.527344,3.640137,10.246094,8.942871h-4.853516Z" style="fill:#1a1a1a;"/>
    <path d="M98.437945,168.331634v9.211914h9.976562v4.493652h-9.976562v13.885742h-4.853516v-32.084961h18.06543v4.493652h-13.211914Z" style="fill:#1a1a1a;"/>
    <path d="M137.76021,179.880462c0,9.661621-3.100586,16.626465-11.324219,16.626465s-11.324219-6.964844-11.324219-16.626465c0-9.706543,3.100586-16.626953,11.324219-16.626953s11.324219,6.92041,11.324219,16.626953ZM132.861773,179.880462c0-7.324707-1.392578-11.998535-6.425781-11.998535s-6.425781,4.673828-6.425781,11.998535,1.392578,11.998047,6.425781,11.998047,6.425781-4.67334,6.425781-11.998047Z" style="fill:#1a1a1a;"/>
    <path d="M165.352984,179.880462c0,9.661621-3.100586,16.626465-11.324219,16.626465s-11.324219-6.964844-11.324219-16.626465c0-9.706543,3.100586-16.626953,11.324219-16.626953s11.324219,6.92041,11.324219,16.626953ZM160.454546,179.880462c0-7.324707-1.392578-11.998535-6.425781-11.998535s-6.425781,4.673828-6.425781,11.998535,1.392578,11.998047,6.425781,11.998047,6.425781-4.67334,6.425781-11.998047Z" style="fill:#1a1a1a;"/>
    <path d="M180.049273,163.837982c9.392578,0,12.538086,6.425781,12.538086,16.04248,0,9.571777-3.145508,16.04248-12.538086,16.04248h-8.313477v-32.084961h8.313477ZM176.54439,191.42929h2.96582c7.055664,0,8.178711-5.078125,8.178711-11.548828,0-6.471191-1.123047-11.548828-8.178711-11.548828h-2.96582v23.097656Z" style="fill:#1a1a1a;"/>
  </g>
</svg>