<svg xmlns="http://www.w3.org/2000/svg" width="600" height="600" viewBox="0 0 600 600">
  <style>
    #logo .brand { fill: #000000; }
    @media (prefers-color-scheme: dark) {
      #logo .brand { fill: #ffffff; }
    }
  </style>
  <g id="logo">
    <path class="brand" d="M165.7,188.8c6.9,16.3,20.6,31.2,38.3,31.2h192c17.7,0,31.4-14.9,38.3-31.2,12.1-28.7,40.6-48.8,73.7-48.8s80,35.8,80,80-17,56.9-42,70.4c-3.6,1.9-6,5.5-6,9.6s2.4,7.7,6,9.6c25,13.5,42,40,42,70.4,0,44.2-35.8,80-80,80s-61.6-20.1-73.7-48.8c-6.9-16.3-20.6-31.2-38.3-31.2h-192c-17.7,0-31.4,14.9-38.3,31.2-12.1,28.7-40.6,48.8-73.7,48.8S12,424.2,12,380s17-56.9,42-70.4c3.6-1.9,6-5.5,6-9.6s-2.4-7.7-6-9.6c-25-13.5-42-40-42-70.4,0-44.2,35.8-80,80-80s61.6,20.1,73.7,48.8Z"/>
  </g>
</svg>